HIERARCHY
ROOT Hips
{
	OFFSET 0.000000 0.000000 0.000000 
	CHANNELS 6 Xposition Yposition Zposition Zrotation Yrotation Xrotation
	JOINT LeftUpLeg
	{
		OFFSET 1.363060 -1.794630 0.839290 
		CHANNELS 3 Zrotation Yrotation Xrotation
		JOINT LeftLeg
		{
			OFFSET 2.448110 -6.726130 0.000000 
			CHANNELS 3 Zrotation Yrotation Xrotation
			JOINT LeftFoot
			{
				OFFSET 2.562200 -7.039590 0.000000 
				CHANNELS 3 Zrotation Yrotation Xrotation
				JOINT LeftToeBase
				{
					OFFSET 0.157640 -0.433110 2.322550 
					CHANNELS 3 Zrotation Yrotation Xrotation
					End Site
					{
						OFFSET 0.000000 0.000000 0.000000 
					}
				}
			}
		}
	}
	JOINT RightUpLeg
	{
		OFFSET -1.305520 -1.794630 0.839290 
		CHANNELS 3 Zrotation Yrotation Xrotation
		JOINT RightLeg
		{
			OFFSET -2.542530 -6.985550 0.000000 
			CHANNELS 3 Zrotation Yrotation Xrotation
			JOINT RightFoot
			{
				OFFSET -2.568260 -7.056230 0.000000 
				CHANNELS 3 Zrotation Yrotation Xrotation
				JOINT RightToeBase
				{
					OFFSET -0.164730 -0.452590 2.363150 
					CHANNELS 3 Zrotation Yrotation Xrotation
					End Site
					{
						OFFSET 0.000000 0.000000 0.000000 
					}
				}
			}
		}
	}
	JOINT Spine
	{
		OFFSET 0.028270 2.035590 -0.193380 
		CHANNELS 3 Zrotation Yrotation Xrotation
		JOINT Spine1
		{
			OFFSET 0.056720 2.048850 -0.042750 
			CHANNELS 3 Zrotation Yrotation Xrotation
			JOINT Neck1
			{
				OFFSET -0.054170 1.746240 0.172020 
				CHANNELS 3 Zrotation Yrotation Xrotation
				JOINT Head
				{
					OFFSET 0.104070 1.761360 -0.123970 
					CHANNELS 3 Zrotation Yrotation Xrotation
					End Site
					{
						OFFSET 0.000000 0.000000 0.000000 
					}
				}
			}
			JOINT LeftArm
			{
				OFFSET 3.362410 1.200890 -0.311210 
				CHANNELS 3 Zrotation Yrotation Xrotation
				JOINT LeftForeArm
				{
					OFFSET 4.983000 -0.000000 -0.000000 
					CHANNELS 3 Zrotation Yrotation Xrotation
					JOINT LeftHand
					{
						OFFSET 3.483560 -0.000000 -0.000000 
						CHANNELS 3 Zrotation Yrotation Xrotation
						JOINT LeftHandIndex1
						{
							OFFSET 0.715260 -0.000000 -0.000000 
							CHANNELS 3 Zrotation Yrotation Xrotation
							End Site
							{
								OFFSET 0.000000 0.000000 0.000000 
							}
						}
					}
				}
			}
			JOINT RightArm
			{
				OFFSET -3.136600 1.374050 -0.404650 
				CHANNELS 3 Zrotation Yrotation Xrotation
				JOINT RightForeArm
				{
					OFFSET -5.241900 -0.000000 -0.000000 
					CHANNELS 3 Zrotation Yrotation Xrotation
					JOINT RightHand
					{
						OFFSET -3.444170 -0.000000 -0.000000 
						CHANNELS 3 Zrotation Yrotation Xrotation
						JOINT RightHandIndex1
						{
							OFFSET -0.622530 -0.000000 -0.000000 
							CHANNELS 3 Zrotation Yrotation Xrotation
							End Site
							{
								OFFSET 0.000000 0.000000 0.000000 
							}
						}
					}
				}
			}
		}
	}
}
MOTION
Frames: 10
Frame Time: 0.041667
0.582661 14.651162 -16.680830 -2.023549 -1.981164 25.908422 -10.716468 -9.169719 -72.542005 14.383192 20.976995 73.662083 0.239235 6.342704 -19.597921 0.009900 -0.641400 -1.762500 9.318183 15.806067 -74.458811 -14.886399 -21.515389 75.264163 -0.746521 -3.589046 -19.986871 -0.001900 -0.279600 0.768300 1.534040 1.109815 2.059123 1.693812 -0.015296 5.109177 2.096928 1.038520 12.255008 -0.081700 0.658800 5.807100 -91.416328 21.384373 31.002594 5.696854 -14.272163 -0.468099 -0.006792 -0.952009 -15.388426 -7.125000 0.000000 0.000000 89.865516 -18.730935 9.554968 -9.543859 21.760951 -2.067852 0.546898 1.076998 26.991077 7.125000 0.000000 0.000000 
0.580035 14.635406 -16.680325 -2.029484 -1.974667 25.997266 -10.659577 -9.188282 -72.759519 14.452437 20.997396 73.862035 0.251301 6.338389 -19.694253 0.010000 -0.644800 -1.771800 9.269322 15.832329 -74.675669 -14.952555 -21.534157 75.454283 -0.759126 -3.581212 -20.088804 -0.002200 -0.300900 0.826900 1.534651 1.101664 2.036483 1.698696 -0.019236 5.042455 2.086601 1.054895 12.230385 -0.082300 0.664300 5.818200 -91.372865 21.339313 30.767744 5.613240 -14.106798 -0.448680 -0.008224 -0.949153 -15.238918 -7.125000 0.000000 0.000000 89.860954 -18.786666 9.498664 -9.500860 21.691586 -2.049688 0.547397 1.078552 27.060635 7.125000 0.000000 0.000000 
0.577207 14.618439 -16.679416 -2.035377 -1.969158 26.095465 -10.598121 -9.208486 -72.994064 14.528337 21.019321 74.080999 0.268623 6.318811 -19.813218 0.009600 -0.632800 -1.739000 9.215336 15.862458 -74.907924 -15.024235 -21.554082 75.659979 -0.775442 -3.563947 -20.210762 -0.002500 -0.323100 0.887700 1.537485 1.086706 2.011338 1.717721 -0.028540 4.971107 2.072452 1.085690 12.200066 -0.080200 0.675900 5.828600 -91.361300 21.241735 30.455145 5.515071 -13.908796 -0.426603 -0.010928 -0.945006 -14.993554 -7.125000 0.000000 0.000000 89.835116 -18.801963 9.446502 -9.443438 21.595620 -2.025073 0.548991 1.079766 27.168239 7.125000 0.000000 0.000000 
0.573975 14.600057 -16.678204 -2.041573 -1.967395 26.200656 -10.531128 -9.229986 -73.243094 14.611308 21.043012 74.320485 0.291296 6.287276 -19.958890 0.008800 -0.605300 -1.663500 9.155075 15.899653 -75.153301 -15.102718 -21.575448 75.884844 -0.798904 -3.520549 -20.358509 -0.003200 -0.363300 0.998300 1.541630 1.067508 1.982902 1.747883 -0.041584 4.892323 2.063115 1.122836 12.173007 -0.072700 0.690200 5.842900 -91.378756 21.085042 30.047764 5.399636 -13.672290 -0.401959 -0.015055 -0.939258 -14.633726 -7.125000 0.000000 0.000000 89.796040 -18.776534 9.389267 -9.370224 21.470360 -1.993417 0.551406 1.080782 27.298877 7.125000 0.000000 0.000000 
0.570339 14.580160 -16.676386 -2.047877 -1.968409 26.313058 -10.457017 -9.254252 -73.505683 14.701838 21.068425 74.581997 0.317244 6.255030 -20.131591 0.008000 -0.577000 -1.585700 9.089261 15.942750 -75.412336 -15.189134 -21.598576 76.132049 -0.831366 -3.445957 -20.540654 -0.004300 -0.423200 1.162800 1.547300 1.045265 1.951676 1.790286 -0.057908 4.807224 2.064904 1.164789 12.143108 -0.055900 0.706700 5.857300 -91.421203 20.864567 29.561367 5.272062 -13.406600 -0.375769 -0.020305 -0.931914 -14.190452 -7.125000 0.000000 0.000000 89.745980 -18.707559 9.328045 -9.285585 21.322238 -1.956651 0.554241 1.081923 27.424318 7.125000 0.000000 0.000000 
0.566299 14.558647 -16.673962 -2.053013 -1.972351 26.431071 -10.376838 -9.282594 -73.780407 14.800203 21.095417 74.866090 0.345939 6.229065 -20.334850 0.007300 -0.552200 -1.517500 9.018517 15.990774 -75.685607 -15.283956 -21.623295 76.402966 -0.871696 -3.354434 -20.768053 -0.005500 -0.480400 1.320000 1.552457 1.025232 1.916052 1.832586 -0.073074 4.710269 2.070385 1.206513 12.119848 -0.037400 0.723300 5.876700 -91.473378 20.573993 28.982991 5.130238 -13.107013 -0.347448 -0.027170 -0.922867 -13.666950 -7.125000 0.000000 0.000000 89.704849 -18.604520 9.247646 -9.193996 21.159271 -1.916569 0.557230 1.083081 27.514671 7.125000 0.000000 0.000000 
0.561956 14.535620 -16.670630 -2.060565 -1.974620 26.547485 -10.287530 -9.315055 -74.058471 14.906183 21.123847 75.172478 0.374216 6.227607 -20.569794 0.007300 -0.550000 -1.511200 8.949853 16.042030 -75.963385 -15.387316 -21.649621 76.697971 -0.921784 -3.249681 -21.058204 -0.006600 -0.525700 1.444600 1.556222 1.010865 1.876364 1.865771 -0.083963 4.599316 2.091651 1.233675 12.111777 -0.014100 0.734200 5.905500 -91.517372 20.209935 28.360744 4.983904 -12.792393 -0.319264 -0.034377 -0.912315 -13.128288 -7.125000 0.000000 0.000000 89.684884 -18.468495 9.152917 -9.097738 20.984721 -1.874178 0.560021 1.084388 27.540128 7.125000 0.000000 0.000000 
0.557209 14.511380 -16.666287 -2.065366 -1.978688 26.657077 -10.196975 -9.351694 -74.331620 15.018707 21.153150 75.498091 0.400790 6.259046 -20.836364 0.008100 -0.580400 -1.595000 8.878907 16.095209 -76.238890 -15.498671 -21.677094 77.015566 -0.980556 -3.141700 -21.413068 -0.007100 -0.545000 1.497600 1.557443 1.005792 1.831713 1.886555 -0.088231 4.468663 2.122631 1.244673 12.116983 0.009700 0.738300 5.941500 -91.547975 19.765756 27.691900 4.832719 -12.461659 -0.290778 -0.041534 -0.900359 -12.591826 -7.125000 0.000000 0.000000 89.694919 -18.302784 9.025224 -8.997278 20.799318 -1.829699 0.563384 1.085226 27.502366 7.125000 0.000000 0.000000 
0.552159 14.485928 -16.660833 -2.071289 -1.980714 26.758833 -10.101249 -9.391089 -74.600098 15.137297 21.183150 75.841629 0.427023 6.314591 -21.131605 0.009700 -0.636400 -1.748800 8.811459 16.151404 -76.511453 -15.617249 -21.705413 77.353923 -1.044741 -3.050957 -21.828315 -0.006500 -0.520500 1.430200 1.556524 1.012148 1.781772 1.891472 -0.084411 4.316533 2.156286 1.239900 12.134779 0.028900 0.735800 5.985700 -91.567811 19.225734 26.944486 4.672329 -12.105710 -0.260220 -0.048962 -0.887204 -12.030099 -7.125000 0.000000 0.000000 89.738086 -18.107699 8.879806 -8.897583 20.610976 -1.784660 0.568112 1.085491 27.394757 7.125000 0.000000 0.000000 
0.546706 14.459366 -16.654167 -2.074190 -1.982401 26.848172 -10.006832 -9.433054 -74.856642 15.260837 21.213435 76.199887 0.452507 6.393587 -21.450857 0.012300 -0.715500 -1.966200 8.743415 16.209948 -76.774115 -15.742736 -21.734381 77.711676 -1.113137 -2.977404 -22.290934 -0.005100 -0.461700 1.268700 1.554134 1.028222 1.725722 1.888608 -0.074614 4.137632 2.205542 1.215471 12.161475 0.051700 0.725000 6.034600 -91.589437 18.582961 26.080041 4.500974 -11.720605 -0.227359 -0.056645 -0.872869 -11.399776 -7.125000 0.000000 0.000000 89.805428 -17.882652 8.727190 -8.800662 20.422627 -1.739887 0.574683 1.084834 27.255573 7.125000 0.000000 0.000000 
